<svg xmlns="http://www.w3.org/2000/svg" viewBox="0 0 546.34 278.08"><defs>
    <style>.none{fill:none;}.eye{fill:none;}.eye:hover{fill:#000000;}</style></defs>
    <path d="M267,87.29c-2.26-42.46-36.85-75.14-77.25-73C165.13,15.61,144,29.61,131.81,50,117.56,29.17,94.43,16.2,69,17.55,28.62,19.7-2.22,57.25.13,101.41s37,78.23,77.4,76.08a68.83,68.83,0,0,0,41.83-17.27c3.26,12,7.37,23.3,11.56,35.42a5.16,5.16,0,0,1-1.46,5.55c-15.6,13.77-48.9,41.5-59.78,53.09-21.76,22.19-26.52,34.62,8,11.22,24-15.08,51.33-29.7,70.7-47.9,11.18-9.4,10.18-21.07,4.71-33.39-5.91-12.11-9.31-24.05-11.25-39.17,14.24,15.2,34.34,24.19,56.15,23C238.38,165.92,269.3,129.76,267,87.29ZM73.32,152.66c-28,0-50.72-24.89-50.72-55.6s22.71-55.6,50.72-55.6S124,66.36,124,97.06,101.33,152.66,73.32,152.66Zm121.8-7c-27.77,0-50.29-23.86-50.29-53.28S167.35,39.1,195.12,39.1,245.4,63,245.4,92.38,222.89,145.66,195.12,145.66Z"/>
    <path class="none" d="M406.19,110.29c1.93-2.63,3.78-5.37,5.55-8.18a182.1,182.1,0,0,0,9-16.32q2.07-4.23,4-8.57l3.87-9c2.52-6,4.83-11.78,6.65-17.53a69.43,69.43,0,0,0,3.39-16.4,24,24,0,0,0-.42-6.44,9.05,9.05,0,0,0-1.71-3.7A8.91,8.91,0,0,0,433,21.76a15.27,15.27,0,0,0-5.3-1.23,23,23,0,0,0-12.28,3.37,40.57,40.57,0,0,0-11.39,10,51.59,51.59,0,0,0-7.9,13.94l-.69,1.91-.61,1.94c-.21.65-.36,1.31-.54,2S394,55,393.82,55.7L393,59.94a19.13,19.13,0,0,0-.3,2.11l-.26,2.11-.26,2.12c-.06.7-.05,1.4-.08,2.1,0,1.4-.16,2.8-.12,4.19l.2,4.15a15.48,15.48,0,0,0,.22,2l.28,2a57.94,57.94,0,0,0,4.67,15.66A65.45,65.45,0,0,0,406.19,110.29Z"/>
    <path class="none" d="M462.45,134.16l-.76-2.19c-.54-1.53-1.13-3.17-1.7-4.89s-1.15-3.52-1.66-5.4c-.27-.92-.5-1.9-.74-2.85l-.6-2.61c-1.52-6.93-2.7-13.82-3.56-20.79-.74-6.13-1.27-12.3-1.52-18.53-.49,1.18-1,2.36-1.49,3.52l-1.93,4.51c-.67,1.57-1.37,3.14-2.07,4.7Q444.3,94.33,442,99a200.44,200.44,0,0,1-10.32,18.18c-1.92,3-3.92,5.88-6,8.75l-.53.7.93.61,1.71,1,.85.5.9.44,1.81.9c.62.28,1.26.53,1.89.81a76,76,0,0,0,16.45,4.65,86,86,0,0,0,8.66,1.06l1.05.06.71,0h0s0,0,0,0h0l.25,0c.68-.1,1.24-.25,1.87-.36a2.3,2.3,0,0,0,.3-.07l.22,0,.3-.08s.08,0,0-.14Z"/>
    <path d="M545.71,38.65c-12.37-33.33-59.26-49.13-81.64-14.43C459.94,7.15,440-2.3,422.73.48c-20.79,3-37,18.35-45.52,35.67-14.28,29.3-9.63,66.47,13.7,90.35h0c-18.81,14.76-38.63,5.66-50.77-12a142.46,142.46,0,0,1-17.48-32.09c-2.76-2.65-7.53-3.82-10.22-4.2C320.57,58.4,340,33,352.83,23.09c9.69-8.62,19-14.67,20.13-17.78C372.28,0,354.66,7.18,345.48,12c-22.71,11.6-43.51,32-54.2,53.59-3.16-13.15-5.15-27.75-11.33-40-1.17-2.29-3.52-4.79-5.65-5.59-4.06-1.52-9.08-1.12-12.13,1.06-3.5,2.49-5.52,7-4,10.91,17.85,47,13.89,94.64,13,111.39a12.07,12.07,0,0,0,11.7,12.47l.42,0A12.28,12.28,0,0,0,296.1,145c1.27-13.63,3.51-31.28,7.57-44.31,18.62,43.3,60.5,78.59,106.2,41.72C425.79,153.1,445.73,158.33,465,158c17.45-1.66,30.19-13.14,24-30.45-13-28.17-23.87-129.4,34.38-98.46C529.32,30.58,550.23,53.6,545.71,38.65Zm-137.55,70.7a55.08,55.08,0,0,1-13.55-28.11,62.66,62.66,0,0,1,3.49-31.45c3.64-9.22,10.48-18,19.28-22.81,10-6.23,25.54-3.56,23.23,9.9-.73,10.64-5.49,22-10,32.35C424.51,83.14,417.52,97.26,408.16,109.35ZM462,134.46c-12.14-.68-24.72-3.34-35-9.58,11.44-14.44,19.65-30.75,26.84-47.37C454.67,96.67,458,116,465,133.9,464,134.12,463,134.31,462,134.46Z"/>
    <path d="M460,136.63h0S460,136.63,460,136.63Z"/>
    <circle class="eye" cx="81.6" cy="95.15" r="15.71"/>
    <circle class="eye" cx="189.65" cy="93.47" r="15.71"/>
</svg>